<svg width="125" height="82" viewBox="0 0 125 82" fill="none" xmlns="http://www.w3.org/2000/svg">
<path d="M4.50024 2.00001C4.50025 0.89544 3.60482 5.24521e-06 2.50025 0C1.39568 -5.24521e-06 0.50025 0.895421 0.500244 1.99999L4.50024 2.00001ZM124.5 70L104.591 58.2961L104.41 81.3894L124.5 70ZM0.500244 1.99999C0.500187 14.0302 0.548582 24.4191 2.29039 33.1443C4.05079 41.9626 7.56711 49.2375 14.5741 54.9581C21.5094 60.6201 31.6725 64.6 46.4012 67.2925C61.1471 69.9881 80.6657 71.4262 106.483 71.8584L106.55 67.8589C80.8079 67.428 61.545 65.9946 47.1205 63.3577C32.6789 60.7177 23.2828 56.9042 17.1038 51.8595C10.9965 46.8735 7.8434 40.5284 6.21299 32.3612C4.56399 24.1009 4.50019 14.1388 4.50024 2.00001L0.500244 1.99999Z" fill="url(#paint0_linear_1_2933)"/>
<defs>
<linearGradient id="paint0_linear_1_2933" x1="3" y1="2" x2="115" y2="69" gradientUnits="userSpaceOnUse">
<stop stop-color="#37C6AB"/>
<stop offset="1" stop-color="#37C6AB" stop-opacity="0.5"/>
</linearGradient>
</defs>
</svg>
