<svg width="79" height="80" viewBox="0 0 79 80" fill="none" xmlns="http://www.w3.org/2000/svg">
<path d="M75.5001 2.00001C75.5001 1.17158 76.1717 0.500004 77.0001 0.5C77.8285 0.499996 78.5001 1.17157 78.5001 1.99999L75.5001 2.00001ZM3.05176e-05 71L14.8897 62.1514L15.108 79.4706L3.05176e-05 71ZM78.5001 1.99999C78.5002 13.9234 79.0017 24.2729 78.6353 32.863C78.2673 41.4901 77.0237 48.7353 73.3401 54.5504C69.6219 60.4201 63.5605 64.6182 54.0293 67.4671C44.5327 70.3056 31.4669 71.8437 13.5479 72.3292L13.4667 69.3303C31.3067 68.8469 44.057 67.3167 53.1701 64.5927C62.2486 61.8792 67.5906 58.0206 70.8058 52.945C74.0557 47.8146 75.2758 41.2257 75.638 32.7351C76.0018 24.2076 75.5002 14.1559 75.5001 2.00001L78.5001 1.99999Z" fill="white" fill-opacity="0.3"/>
</svg>
