<svg width="154" height="79" viewBox="0 0 154 79" fill="none" xmlns="http://www.w3.org/2000/svg">
<path d="M3.00024 2C3.00024 1.17157 2.32867 0.5 1.50024 0.5C0.671817 0.5 0.000244141 1.17157 0.000244141 2L3.00024 2ZM154 70L139.001 61.3376L138.999 78.6581L154 70ZM0.000244141 2C0.000244141 18.4109 -0.00879908 31.1009 2.21018 40.7666C3.32811 45.6362 5.02487 49.8135 7.62004 53.3587C10.2212 56.9121 13.6733 59.7601 18.2008 62.0402C27.1847 66.5646 40.4881 68.8887 60.0476 70.1163C79.6508 71.3466 105.764 71.4828 140.501 71.4981L140.503 68.4981C105.739 68.4828 79.7266 68.3455 60.2355 67.1222C40.7008 65.8962 27.9415 63.5868 19.5502 59.3608C15.39 57.2656 12.3264 54.7091 10.0408 51.5867C7.74918 48.4562 6.18809 44.6863 5.13411 40.0953C3.00929 30.8398 3.00024 18.5549 3.00024 2L0.000244141 2Z" fill="white" fill-opacity="0.3"/>
</svg>
