<svg width="14" height="18" viewBox="0 0 14 18" fill="none" xmlns="http://www.w3.org/2000/svg">
<path fill-rule="evenodd" clip-rule="evenodd" d="M8.45835 0.166748C8.45835 2.58299 10.4171 4.54175 12.8334 4.54175C13.1785 4.54175 13.4584 4.82157 13.4584 5.16675C13.4584 5.51193 13.1785 5.79175 12.8334 5.79175C11.0663 5.79175 9.48958 4.97696 8.45835 3.70258V13.5001C8.45835 15.6862 6.68615 17.4584 4.50002 17.4584C2.31389 17.4584 0.541687 15.6862 0.541687 13.5001C0.541687 11.314 2.31389 9.54175 4.50002 9.54175C5.5477 9.54175 6.50031 9.94877 7.20835 10.6133V0.166748H8.45835ZM7.20835 13.5001C7.20835 12.0043 5.99579 10.7917 4.50002 10.7917C3.00425 10.7917 1.79169 12.0043 1.79169 13.5001C1.79169 14.9959 3.00425 16.2084 4.50002 16.2084C5.99579 16.2084 7.20835 14.9959 7.20835 13.5001Z" fill="white"/>
</svg>
