<svg width="278" height="175" viewBox="0 0 278 175" fill="none" xmlns="http://www.w3.org/2000/svg">
<ellipse opacity="0.2" cx="139.008" cy="160.697" rx="123.678" ry="14.3029" fill="#1E1D25"/>
<path d="M139.161 59.563V109.88C107.572 110.297 44.3942 109.98 44.3942 105.386C44.3942 99.6422 34.031 73.9216 27.2887 63.933C21.8949 55.9421 28.5373 52.1964 32.5327 51.3224H131.045C136.039 51.3224 138.537 56.8161 139.161 59.563Z" fill="#DC994F"/>
<circle cx="3.12143" cy="3.12143" r="3.12143" transform="matrix(-1 0 0 1 100.955 77.5425)" fill="#CB843C"/>
<circle cx="3.12143" cy="3.12143" r="3.12143" transform="matrix(-1 0 0 1 69.7402 77.5425)" fill="#CB843C"/>
<path d="M27.2887 63.933C21.8949 55.9421 28.5373 52.1964 32.5327 51.3224H73.333C54.1549 96.1711 109.227 106.717 139.161 105.386V109.88C107.572 110.297 44.3942 109.98 44.3942 105.386C44.3942 99.6422 34.031 73.9216 27.2887 63.933Z" fill="#CB843C"/>
<path d="M139.133 59.5628V109.88C170.722 110.297 233.9 109.98 233.9 105.385C233.9 99.642 244.263 73.9214 251.005 63.9329C256.399 55.942 249.756 52.1963 245.761 51.3223H147.249C142.254 51.3223 139.757 56.816 139.133 59.5628Z" fill="#DC994F"/>
<path d="M139.133 59.5628V109.88C170.722 110.297 233.9 109.98 233.9 105.385C193.862 113.335 122.177 113.651 155.739 51.3223H147.249C142.254 51.3223 139.757 56.816 139.133 59.5628Z" fill="#CB843C"/>
<circle cx="180.46" cy="80.6638" r="3.12143" fill="#CB843C"/>
<circle cx="211.675" cy="80.6638" r="3.12143" fill="#CB843C"/>
<path d="M23.6477 133.844L20.172 159.565C20.091 160.164 20.557 160.697 21.1618 160.697H24.0017C24.3902 160.697 24.7434 160.472 24.9073 160.12L32.7354 143.295C32.8993 142.943 33.2525 142.718 33.641 142.718H244.753C245.14 142.718 245.492 142.941 245.657 143.29L253.606 160.125C253.771 160.474 254.123 160.697 254.51 160.697H257.218C257.827 160.697 258.294 160.158 258.207 159.556L254.5 133.835C254.429 133.344 254.007 132.979 253.511 132.979H24.6376C24.1376 132.979 23.7147 133.349 23.6477 133.844Z" fill="#89563D"/>
<path d="M27.5104 63.3085C9.63087 71.2993 2.5806 76.8763 1.29041 78.6659C17.8964 78.6659 18.3959 139.596 26.5116 139.347C34.6273 139.097 49.4853 129.108 44.9905 104.761C41.3946 85.2834 31.8388 69.0103 27.5104 63.3085Z" fill="#D29049"/>
<path d="M26.0524 139.606H18.4361C17.2291 139.439 14.718 138.371 14.066 135.485C12.0301 126.475 8.9133 110.962 5.32605 98.3979C2.45433 83.161 -4.53764 76.5515 8.07287 76.5516C22.4754 76.5518 30.5472 131.615 30.5472 135.485C30.5472 138.582 27.5506 139.523 26.0524 139.606Z" fill="#E8A660"/>
<path d="M250.586 63.3087C268.466 71.2996 275.516 76.8765 276.806 78.6662C260.2 78.6662 259.701 139.597 251.585 139.347C243.469 139.097 228.611 129.109 233.106 104.761C236.702 85.2836 246.258 69.0105 250.586 63.3087Z" fill="#D29049"/>
<path d="M252.044 139.606H259.661C260.868 139.44 263.379 138.371 264.031 135.486C266.067 126.475 269.183 110.962 272.771 98.3982C275.642 83.1612 282.634 76.5517 270.024 76.5519C255.621 76.5521 247.55 131.615 247.55 135.486C247.55 138.582 250.546 139.523 252.044 139.606Z" fill="#E8A660"/>
<rect x="30.5068" y="120.243" width="217.252" height="19.4777" rx="4.24515" fill="#D08C47"/>
<path d="M139.133 108.167V113.249C139.133 113.801 139.581 114.249 140.134 114.248L246.796 113.999C247.332 113.998 247.776 113.573 247.764 113.037C247.716 110.972 247.206 109.712 246.26 109.381L234.887 105.806C234.79 105.775 234.689 105.76 234.587 105.76H141.26C139.759 105.861 139.216 107.407 139.133 108.167Z" fill="#E8A660"/>
<mask id="path-17-inside-1_1_2782" fill="white">
<path d="M139.133 113.002C139.133 111.071 140.698 109.506 142.629 109.506H244.263C246.193 109.506 247.759 111.071 247.759 113.002V120.743C247.759 122.674 246.193 124.239 244.263 124.239H142.629C140.698 124.239 139.133 122.674 139.133 120.743V113.002Z"/>
</mask>
<path d="M139.133 113.002C139.133 111.071 140.698 109.506 142.629 109.506H244.263C246.193 109.506 247.759 111.071 247.759 113.002V120.743C247.759 122.674 246.193 124.239 244.263 124.239H142.629C140.698 124.239 139.133 122.674 139.133 120.743V113.002Z" fill="#E8A660"/>
<path d="M139.133 113.002C139.133 110.933 140.81 109.256 142.878 109.256H244.013C246.082 109.256 247.759 110.933 247.759 113.002C247.759 111.209 246.193 109.755 244.263 109.755H142.629C140.698 109.755 139.133 111.209 139.133 113.002ZM247.759 124.239H139.133H247.759ZM139.133 124.239V109.506V124.239ZM247.759 109.506V124.239V109.506Z" fill="#FBC58C" mask="url(#path-17-inside-1_1_2782)"/>
<path d="M139.142 108.167V113.249C139.142 113.801 138.693 114.249 138.141 114.248L31.4787 113.999C30.9427 113.998 30.4982 113.573 30.5107 113.037C30.559 110.972 31.0682 109.712 32.0142 109.381L43.3877 105.806C43.4846 105.775 43.5856 105.76 43.6872 105.76H137.014C138.516 105.861 139.058 107.407 139.142 108.167Z" fill="#E8A660"/>
<mask id="path-20-inside-2_1_2782" fill="white">
<path d="M139.142 113.002C139.142 111.071 137.577 109.506 135.646 109.506H34.0119C32.0811 109.506 30.5159 111.071 30.5159 113.002V120.743C30.5159 122.674 32.0811 124.239 34.0119 124.239H135.646C137.577 124.239 139.142 122.674 139.142 120.743V113.002Z"/>
</mask>
<path d="M139.142 113.002C139.142 111.071 137.577 109.506 135.646 109.506H34.0119C32.0811 109.506 30.5159 111.071 30.5159 113.002V120.743C30.5159 122.674 32.0811 124.239 34.0119 124.239H135.646C137.577 124.239 139.142 122.674 139.142 120.743V113.002Z" fill="#E8A660"/>
<path d="M139.142 113.002C139.142 110.933 137.465 109.256 135.396 109.256H34.2616C32.1929 109.256 30.5159 110.933 30.5159 113.002C30.5159 111.209 32.0811 109.755 34.0119 109.755H135.646C137.577 109.755 139.142 111.209 139.142 113.002ZM30.5159 124.239H139.142H30.5159ZM139.142 124.239V109.506V124.239ZM30.5159 109.506V124.239V109.506Z" fill="#FBC58C" mask="url(#path-20-inside-2_1_2782)"/>
<g filter="url(#filter0_d_1_2782)">
<path d="M47.253 56.3187C44.4562 58.9158 39.9281 84.7862 38.0136 97.3968C37.0148 97.8962 34.6674 99.6442 33.269 102.641C31.8706 105.637 36.3488 105.554 38.7628 105.138C40.0113 106.012 84.96 106.761 88.3311 108.135C91.028 109.233 90.7034 104.847 90.204 102.516C92.0768 100.768 98.6943 70.1779 100.068 65.9328C101.166 62.5366 95.3647 62.853 92.3265 63.4356C83.0871 56.1939 54.1202 54.6956 53.9953 54.1962C53.8705 53.6967 49.6253 51.4493 48.0022 51.3244C46.7037 51.2245 46.9617 54.6123 47.253 56.3187Z" fill="#002269"/>
<path d="M41.994 75.0452C41.2449 78.0418 39.9282 84.911 38.0137 97.5216C37.0149 98.021 34.6676 99.7691 33.2692 102.766C31.8708 105.762 36.349 105.679 38.7629 105.263C40.0114 106.137 84.9601 106.886 88.3312 108.259C91.0281 109.358 90.7035 104.971 90.2041 102.641C92.077 100.893 98.6944 70.3027 100.068 66.0576C101.167 62.6615 95.3649 62.9778 92.3267 63.5605C87.4421 59.438 80.5749 58.8138 80.4501 58.3143C70.749 77.9918 50.6041 78.0834 41.994 75.0452Z" fill="#001E5C"/>
<path d="M90.2815 102.451C92.1544 100.703 98.3044 72.0486 99.553 67.8035C97.7634 66.3885 94.1619 65.3413 93.7623 72.2335C93.2629 80.8486 85.3024 98.7076 88.4086 108.07C91.1056 109.168 90.7809 104.782 90.2815 102.451Z" fill="#001644"/>
</g>
<path d="M98.2393 112.359C98.2393 104.937 112.506 103.905 121.224 104.433C122.809 104.511 122.017 107.603 121.224 107.603H121.224C120.431 107.603 101.41 107.603 101.41 112.359C101.41 117.115 123.602 116.889 123.602 117.907C123.602 118.196 98.2393 119.156 98.2393 112.359Z" fill="#8E4747"/>
<path d="M188.379 13.8582C173.161 8.15159 164.601 16.7644 162.223 21.7841L163.809 55.0727C194.719 63.7911 200.268 46.3542 201.853 43.1839C203.438 40.0135 207.401 20.9915 188.379 13.8582Z" fill="#E3C795"/>
<path d="M100.401 5.63417C116.642 5.02722 121.131 19.1425 121.801 24.6563L113.277 52.6619C81.1948 51.1687 80.5866 31.7895 80.5866 29.4118C80.5866 25.8672 80.0999 6.39286 100.401 5.63417Z" fill="#E3C795"/>
<g filter="url(#filter1_i_1_2782)">
<path d="M186.011 19.7586C173.093 15.3861 165.827 21.9853 163.808 25.8315L165.154 51.3378C191.393 58.018 196.103 44.6576 197.449 42.2284C198.794 39.7992 202.158 25.2242 186.011 19.7586Z" fill="#E8B6B6"/>
</g>
<g filter="url(#filter2_i_1_2782)">
<path d="M103.367 12.1422C117.005 12.0745 117.138 26.71 117.838 30.9969L113.18 48.6931C86.1739 46.7419 85.4169 32.625 85.4169 29.848C85.4169 27.034 86.3202 12.2268 103.367 12.1422Z" fill="#E8B6B6"/>
</g>
<path d="M129.269 111.583H116.587C116.587 108.413 119.758 108.413 118.965 107.62C118.172 106.828 111.832 104.45 111.039 96.5241C110.405 90.1834 117.116 88.0699 120.55 87.8057H122.928V102.865C127.366 102.865 129.004 108.677 129.269 111.583Z" fill="#E3C795"/>
<rect x="118.502" y="108.819" width="2.25142" height="2.25142" rx="0.750475" fill="#FDE8D7"/>
<rect x="121.504" y="108.819" width="2.25142" height="2.25142" rx="0.750475" fill="#FDE8D7"/>
<rect x="125.256" y="108.819" width="2.25142" height="2.25142" rx="0.750475" fill="#FDE8D7"/>
<path d="M150.773 111.583H163.454C163.454 108.413 160.284 108.413 161.076 107.62C161.869 106.828 168.21 104.45 169.002 96.5241C169.636 90.1834 162.926 88.0699 159.491 87.8057H157.114V102.865C152.675 102.865 151.037 108.677 150.773 111.583Z" fill="#E3C795"/>
<rect width="2.25142" height="2.25142" rx="0.750475" transform="matrix(-1 0 0 1 161.539 108.819)" fill="#FDE8D7"/>
<rect width="2.25142" height="2.25142" rx="0.750475" transform="matrix(-1 0 0 1 158.538 108.819)" fill="#FDE8D7"/>
<rect width="2.25142" height="2.25142" rx="0.750475" transform="matrix(-1 0 0 1 154.785 108.819)" fill="#FDE8D7"/>
<path fill-rule="evenodd" clip-rule="evenodd" d="M124.943 62.6566C122.99 74.8096 119.921 100.225 123.269 104.664C126.617 109.102 130.244 111.269 131.639 111.797H140.009V111.797H148.379C149.774 111.269 153.401 109.102 156.749 104.664C160.097 100.225 157.028 74.8098 155.075 62.6568H140.009V62.6566H124.943Z" fill="#E3C795"/>
<path fill-rule="evenodd" clip-rule="evenodd" d="M124.943 62.6566C122.99 74.8096 119.921 100.225 123.269 104.664C126.617 109.102 130.244 111.269 131.639 111.797H140.009V111.797H148.379C149.774 111.269 153.401 109.102 156.749 104.664C160.097 100.225 157.028 74.8098 155.075 62.6568H140.009V62.6566H124.943Z" fill="url(#paint0_linear_1_2782)" fill-opacity="0.2"/>
<g filter="url(#filter3_i_1_2782)">
<path fill-rule="evenodd" clip-rule="evenodd" d="M154.24 64.2417C155.982 75.6106 158.72 99.3865 155.733 103.539C152.747 107.691 149.511 109.717 148.267 110.212H140.802V110.212H132.159C130.915 109.717 127.68 107.691 124.693 103.539C121.707 99.3866 124.445 75.6107 126.187 64.2418H140.801V64.2417H154.24Z" fill="#FDE8D7"/>
</g>
<g filter="url(#filter4_i_1_2782)">
<path d="M120.457 80.1887C118.887 73.9067 121.766 65.1381 123.402 61.5391L128.309 62.5206C126.019 66.7741 123.402 77.7348 127.328 79.2072C135.18 82.1518 140.088 74.2994 139.107 77.244C137.119 83.2066 122.42 88.0412 120.457 80.1887Z" fill="#E3C795"/>
</g>
<path d="M127.133 64.9161C126.832 64.9161 123.755 64.666 122.255 64.5409L122.63 63.4152L127.508 64.1656C127.508 64.4158 127.433 64.9161 127.133 64.9161Z" fill="#D8B881"/>
<g filter="url(#filter5_i_1_2782)">
<path d="M157.539 80.1887C159.109 73.9067 156.23 65.1381 154.594 61.5391L149.686 62.5206C151.977 66.7741 154.594 77.7348 150.668 79.2072C142.816 82.1518 137.908 74.2994 138.889 77.244C140.877 83.2066 155.576 88.0412 157.539 80.1887Z" fill="#E3C795"/>
</g>
<path d="M150.773 64.9161C150.773 64.9161 154.15 64.666 155.651 64.5409L154.9 63.4152L150.397 63.7904C150.397 64.0406 150.773 64.9161 150.773 64.9161Z" fill="#D8B881"/>
<path d="M114.86 27.1835C115.688 20.9712 120.474 16.0269 126.656 14.9966L137.686 13.1582C139.238 12.8994 140.823 12.8994 142.376 13.1582L153.044 14.9362C159.398 15.9951 164.254 21.1799 164.894 27.589L166.995 48.5993C167.835 56.9978 161.24 64.2854 152.8 64.2854H126.208C117.579 64.2854 110.926 56.6859 112.066 48.1333L114.86 27.1835Z" fill="#FDE8D7"/>
<path fill-rule="evenodd" clip-rule="evenodd" d="M126.32 14.9827C120.132 15.9934 115.329 20.9262 114.483 27.1393L111.699 47.6003C111.315 50.4287 111.783 53.1546 112.894 55.5373C112.943 54.8726 113.076 54.199 113.304 53.5287C114.119 51.1273 116.026 49.256 118.443 48.487L135.164 43.1668C137.901 42.2958 140.838 42.2714 143.589 43.0968L160.949 48.3049C163.719 49.1357 165.822 51.3831 166.478 54.1814C167.134 52.2858 167.399 50.2163 167.18 48.0754L165.086 27.5539C164.432 21.1396 159.556 15.9616 153.193 14.9223L142.241 13.1336C140.718 12.8848 139.165 12.8848 137.642 13.1336L126.32 14.9827Z" fill="#E3C795"/>
<path d="M144.919 42.0266C144.919 43.27 142.701 45.0285 139.966 45.0285C137.23 45.0285 135.013 43.27 135.013 42.0266C135.013 40.7831 137.23 39.7751 139.966 39.7751C142.701 39.7751 144.919 40.7831 144.919 42.0266Z" fill="#4E4949"/>
<path d="M144.769 49.5314C144.769 52.4327 142.417 54.7847 139.516 54.7847C136.614 54.7847 134.262 52.4327 134.262 49.5314" stroke="#4E4949" stroke-width="1.05066" stroke-linecap="round"/>
<ellipse cx="125.256" cy="43.9029" rx="3.0019" ry="1.87619" transform="rotate(-16.1742 125.256 43.9029)" fill="#E39D9D"/>
<ellipse cx="3.0019" cy="1.87619" rx="3.0019" ry="1.87619" transform="matrix(-0.960419 -0.278559 -0.278559 0.960419 158.334 42.9485)" fill="#E39D9D"/>
<circle cx="125.42" cy="33.6294" r="5.41809" transform="rotate(-19.549 125.42 33.6294)" fill="white"/>
<path fill-rule="evenodd" clip-rule="evenodd" d="M127.254 37.5781C129.298 36.8522 130.367 34.6064 129.641 32.562C128.915 30.5176 126.669 29.4488 124.625 30.1747C124.041 30.3821 123.537 30.7134 123.131 31.1285C123.637 31.1785 124.094 31.5127 124.275 32.0237C124.526 32.7286 124.157 33.503 123.452 33.7533C122.941 33.9348 122.394 33.7911 122.036 33.4298C121.969 34.0065 122.03 34.6069 122.238 35.1908C122.964 37.2352 125.209 38.304 127.254 37.5781Z" fill="#393939"/>
<circle cx="153.041" cy="33.6294" r="5.41809" transform="rotate(-19.549 153.041 33.6294)" fill="white"/>
<path fill-rule="evenodd" clip-rule="evenodd" d="M153.496 37.5781C155.541 36.8522 156.61 34.6064 155.884 32.562C155.158 30.5176 152.912 29.4488 150.868 30.1747C150.284 30.3821 149.779 30.7133 149.374 31.1285C149.88 31.1784 150.337 31.5127 150.518 32.0237C150.768 32.7286 150.4 33.503 149.695 33.7533C149.184 33.9348 148.636 33.791 148.278 33.4297C148.212 34.0064 148.273 34.6068 148.48 35.1908C149.206 37.2352 151.452 38.304 153.496 37.5781Z" fill="#393939"/>
<path d="M119.191 27.6781C120.293 26.207 123.378 23.9256 126.909 26.5691" stroke="#AE8D52" stroke-width="0.68916" stroke-linecap="round"/>
<path d="M160.678 27.6781C159.576 26.207 156.491 23.9256 152.96 26.5691" stroke="#AE8D52" stroke-width="0.68916" stroke-linecap="round"/>
<defs>
<filter id="filter0_d_1_2782" x="33.0042" y="51.3223" width="68.4488" height="58.1095" filterUnits="userSpaceOnUse" color-interpolation-filters="sRGB">
<feFlood flood-opacity="0" result="BackgroundImageFix"/>
<feColorMatrix in="SourceAlpha" type="matrix" values="0 0 0 0 0 0 0 0 0 0 0 0 0 0 0 0 0 0 127 0" result="hardAlpha"/>
<feOffset dx="1.24857" dy="0.998858"/>
<feComposite in2="hardAlpha" operator="out"/>
<feColorMatrix type="matrix" values="0 0 0 0 0 0 0 0 0 0 0 0 0 0 0 0 0 0 0.25 0"/>
<feBlend mode="normal" in2="BackgroundImageFix" result="effect1_dropShadow_1_2782"/>
<feBlend mode="normal" in="SourceGraphic" in2="effect1_dropShadow_1_2782" result="shape"/>
</filter>
<filter id="filter1_i_1_2782" x="163.808" y="18.3156" width="34.8738" height="34.8738" filterUnits="userSpaceOnUse" color-interpolation-filters="sRGB">
<feFlood flood-opacity="0" result="BackgroundImageFix"/>
<feBlend mode="normal" in="SourceGraphic" in2="BackgroundImageFix" result="shape"/>
<feColorMatrix in="SourceAlpha" type="matrix" values="0 0 0 0 0 0 0 0 0 0 0 0 0 0 0 0 0 0 127 0" result="hardAlpha"/>
<feOffset dy="3.17034"/>
<feComposite in2="hardAlpha" operator="arithmetic" k2="-1" k3="1"/>
<feColorMatrix type="matrix" values="0 0 0 0 0.890196 0 0 0 0 0.596078 0 0 0 0 0.596078 0 0 0 1 0"/>
<feBlend mode="normal" in2="shape" result="effect1_innerShadow_1_2782"/>
</filter>
<filter id="filter2_i_1_2782" x="85.4169" y="12.142" width="32.4213" height="36.5511" filterUnits="userSpaceOnUse" color-interpolation-filters="sRGB">
<feFlood flood-opacity="0" result="BackgroundImageFix"/>
<feBlend mode="normal" in="SourceGraphic" in2="BackgroundImageFix" result="shape"/>
<feColorMatrix in="SourceAlpha" type="matrix" values="0 0 0 0 0 0 0 0 0 0 0 0 0 0 0 0 0 0 127 0" result="hardAlpha"/>
<feOffset dx="-1.58517" dy="3.17034"/>
<feComposite in2="hardAlpha" operator="arithmetic" k2="-1" k3="1"/>
<feColorMatrix type="matrix" values="0 0 0 0 0.891667 0 0 0 0 0.594444 0 0 0 0 0.594444 0 0 0 1 0"/>
<feBlend mode="normal" in2="shape" result="effect1_innerShadow_1_2782"/>
</filter>
<filter id="filter3_i_1_2782" x="123.365" y="64.2417" width="33.6973" height="45.9701" filterUnits="userSpaceOnUse" color-interpolation-filters="sRGB">
<feFlood flood-opacity="0" result="BackgroundImageFix"/>
<feBlend mode="normal" in="SourceGraphic" in2="BackgroundImageFix" result="shape"/>
<feColorMatrix in="SourceAlpha" type="matrix" values="0 0 0 0 0 0 0 0 0 0 0 0 0 0 0 0 0 0 127 0" result="hardAlpha"/>
<feOffset dy="0.750475"/>
<feComposite in2="hardAlpha" operator="arithmetic" k2="-1" k3="1"/>
<feColorMatrix type="matrix" values="0 0 0 0 0.970833 0 0 0 0 0.838941 0 0 0 0 0.73217 0 0 0 1 0"/>
<feBlend mode="normal" in2="shape" result="effect1_innerShadow_1_2782"/>
</filter>
<filter id="filter4_i_1_2782" x="120.003" y="61.5391" width="19.228" height="22.741" filterUnits="userSpaceOnUse" color-interpolation-filters="sRGB">
<feFlood flood-opacity="0" result="BackgroundImageFix"/>
<feBlend mode="normal" in="SourceGraphic" in2="BackgroundImageFix" result="shape"/>
<feColorMatrix in="SourceAlpha" type="matrix" values="0 0 0 0 0 0 0 0 0 0 0 0 0 0 0 0 0 0 127 0" result="hardAlpha"/>
<feOffset dy="0.750475"/>
<feComposite in2="hardAlpha" operator="arithmetic" k2="-1" k3="1"/>
<feColorMatrix type="matrix" values="0 0 0 0 0.845833 0 0 0 0 0.723115 0 0 0 0 0.503976 0 0 0 1 0"/>
<feBlend mode="normal" in2="shape" result="effect1_innerShadow_1_2782"/>
</filter>
<filter id="filter5_i_1_2782" x="138.765" y="61.5391" width="19.228" height="22.741" filterUnits="userSpaceOnUse" color-interpolation-filters="sRGB">
<feFlood flood-opacity="0" result="BackgroundImageFix"/>
<feBlend mode="normal" in="SourceGraphic" in2="BackgroundImageFix" result="shape"/>
<feColorMatrix in="SourceAlpha" type="matrix" values="0 0 0 0 0 0 0 0 0 0 0 0 0 0 0 0 0 0 127 0" result="hardAlpha"/>
<feOffset dy="0.750475"/>
<feComposite in2="hardAlpha" operator="arithmetic" k2="-1" k3="1"/>
<feColorMatrix type="matrix" values="0 0 0 0 0.845833 0 0 0 0 0.723115 0 0 0 0 0.503976 0 0 0 1 0"/>
<feBlend mode="normal" in2="shape" result="effect1_innerShadow_1_2782"/>
</filter>
<linearGradient id="paint0_linear_1_2782" x1="140.009" y1="62.6566" x2="140.266" y2="111.821" gradientUnits="userSpaceOnUse">
<stop stop-color="#E3C795"/>
<stop offset="1" stop-color="#C2A674"/>
</linearGradient>
</defs>
</svg>
