<svg width="67" height="578" viewBox="0 0 67 508" fill="none" xmlns="http://www.w3.org/2000/svg">
<path d="M57.92 78.52C57.92 80.6 58.96 81.64 61.04 81.64C63.2 81.64 65 81.24 66.44 80.44L65.84 94C62 97.12 57.68 98.68 52.88 98.68C44.08 98.68 39.2 95.48 38.24 89.08C34.24 95.48 28.36 98.68 20.6 98.68C7.48 98.68 0.92 93.04 0.92 81.76C0.92 79.84 1.12 77.72 1.52 75.4L4.04 61.36C5.32 54.16 8.24 48.44 12.8 44.2C17.44 39.88 23.44 37.72 30.8 37.72C38.24 37.72 43.28 39.44 45.92 42.88L46.52 39.28H64.76L58.04 77.08C57.96 77.56 57.92 78.04 57.92 78.52ZM22.4 72.76C22.24 73.48 22.16 74.48 22.16 75.76C22.16 77.04 22.76 78.32 23.96 79.6C25.16 80.8 27.16 81.4 29.96 81.4C32.84 81.4 35.32 80.28 37.4 78.04L41 57.88C40.12 55.88 38.04 54.88 34.76 54.88C28.6 54.88 25 57.84 23.96 63.76L22.4 72.76ZM51.32 28.84H33.56L20.12 0.159995H41.72L51.32 28.84Z" fill="#A9B6D2" fill-opacity="0.35"/>
</svg>
