<svg width="65" height="578" viewBox="0 0 65 508" fill="none" xmlns="http://www.w3.org/2000/svg">
<path d="M25.88 98.68C9.24 98.68 0.92 92.92 0.92 81.4C0.92 79.8 1.08 78.08 1.4 76.24L3.92 61.36C5.28 53.68 8.8 47.8 14.48 43.72C20.24 39.56 27.84 37.48 37.28 37.48C53.36 37.48 61.4 43.56 61.4 55.72C61.4 57.48 61.24 59.4 60.92 61.48L59.48 70H22.88L22.4 72.76C22.24 73.72 22.16 74.6 22.16 75.4C22.16 79.8 24.76 82 29.96 82C31.88 82 33.52 81.4 34.88 80.2C36.24 79 37.04 77.6 37.28 76L57.2 76.24C54.56 91.2 44.12 98.68 25.88 98.68ZM40.28 62.68C40.6 61.32 40.76 60.08 40.76 58.96C40.76 57.76 40.24 56.56 39.2 55.36C38.16 54.16 36.48 53.56 34.16 53.56C31.92 53.56 29.84 54.32 27.92 55.84C26.08 57.36 24.8 59.64 24.08 62.68H40.28ZM30.8 28.84H13.64L33.2 0.159995H54.92L64.4 28.84H47.24L41.48 14.68L30.8 28.84Z" fill="#A9B6D2" fill-opacity="0.35"/>
</svg>
