<svg width="65" height="689" viewBox="0 0 65 89" fill="none" xmlns="http://www.w3.org/2000/svg">
<path d="M36.52 27.6C45.16 27.6 51.68 29.48 56.08 33.24C59.52 36.2 61.24 40.32 61.24 45.6C61.24 47.36 61.04 49.28 60.64 51.36L58.12 65.4C56.6 73.88 53.04 79.88 47.44 83.4C41.92 86.92 34.52 88.68 25.24 88.68C15.96 88.68 9.16 86.92 4.84 83.4C1.64 80.76 0.0400001 76.8 0.0400001 71.52C0.0400001 69.68 0.24 67.64 0.64 65.4L3.16 51.36C5.96 35.52 17.08 27.6 36.52 27.6ZM39.76 53.76C39.92 52.96 40 51.96 40 50.76C40 49.48 39.48 48.08 38.44 46.56C37.4 45.04 35.56 44.28 32.92 44.28C30.36 44.28 28.2 45.16 26.44 46.92C24.68 48.6 23.56 50.88 23.08 53.76L21.52 62.76C21.36 63.56 21.28 64.6 21.28 65.88C21.28 67.08 21.8 68.4 22.84 69.84C23.88 71.28 25.68 72 28.24 72C30.88 72 33.08 71.12 34.84 69.36C36.6 67.52 37.72 65.32 38.2 62.76L39.76 53.76ZM12.28 12.36C12.28 8.28 13.2 5.32 15.04 3.48C16.88 1.56 19.72 0.599997 23.56 0.599997C28.92 0.599997 31.6 2.92 31.6 7.55999C31.6 11.64 30.68 14.64 28.84 16.56C27 18.4 24.12 19.32 20.2 19.32C14.92 19.32 12.28 17 12.28 12.36ZM46.12 12.36C46.12 8.28 47.04 5.32 48.88 3.48C50.72 1.56 53.56 0.599997 57.4 0.599997C62.76 0.599997 65.44 2.92 65.44 7.55999C65.44 11.64 64.52 14.64 62.68 16.56C60.84 18.4 57.96 19.32 54.04 19.32C48.76 19.32 46.12 17 46.12 12.36Z" fill="#A9B6D2" fill-opacity="0.35"/>
</svg>
