<svg width="68" height="710" viewBox="0 0 68 99" fill="none" xmlns="http://www.w3.org/2000/svg">
<path d="M57.48 78.52C57.48 80.6 58.52 81.64 60.6 81.64C62.76 81.64 64.56 81.24 66 80.44L65.4 94C61.56 97.12 57.24 98.68 52.44 98.68C43.4 98.68 38.48 95.2 37.68 88.24C32.88 95.2 26.4 98.68 18.24 98.68C10.16 98.68 4.92 96.84 2.52 93.16C0.92 90.84 0.12 88.2 0.12 85.24C0.12 82.28 0.36 79.56 0.84 77.08L7.56 39.28H27.96L22.32 71.2C22.08 72.64 21.96 74.08 21.96 75.52C21.96 79.36 24.12 81.28 28.44 81.28C32.04 81.28 34.92 80.04 37.08 77.56L43.92 39.28H64.32L57.6 77.08C57.52 77.56 57.48 78.04 57.48 78.52ZM44.04 28.84H26.28L45.96 0.159995H67.56L44.04 28.84Z" fill="#A9B6D2" fill-opacity="0.35"/>
</svg>
